<svg xmlns="http://www.w3.org/2000/svg" viewBox="0 0 250.25 217.26"><title>increasing</title><g data-name="Layer 5"><path d="M80.72 205.73a11.57 11.57 0 0 1-11.53 11.53H21.52a11.57 11.57 0 0 1-11.53-11.53v-52.28a11.57 11.57 0 0 1 11.53-11.53h47.67a11.57 11.57 0 0 1 11.53 11.53zM165.48 205.73a11.57 11.57 0 0 1-11.53 11.53h-47.67a11.57 11.57 0 0 1-11.53-11.53v-80a11.57 11.57 0 0 1 11.53-11.53h47.67a11.57 11.57 0 0 1 11.53 11.53zM250.24 205.73a11.57 11.57 0 0 1-11.53 11.53h-47.67a11.57 11.57 0 0 1-11.53-11.53V95.02a11.57 11.57 0 0 1 11.53-11.53h47.67a11.57 11.57 0 0 1 11.53 11.53zM240.27.21l-51.8 12.61c-4.11 1-5 4.25-2 7.24l11.06 10.8c.92 1-.18 2.46-1.05 3.06a332.47 332.47 0 0 1-33.31 19.71C80.05 96.99 11.53 94.33 10.5 94.28a10.012 10.012 0 0 0-1 20c.4 0 2 .09 4.82.09 17.76 0 81.58-3.06 158.11-43a338.62 338.62 0 0 0 38-22.76c1-.73 2.84-2 4.51-.29l12.09 12.09c3 3 6.24 2.07 7.21-2l11.75-52.44c.95-4.2-1.61-6.75-5.72-5.76z"/></g></svg>