<svg xmlns="http://www.w3.org/2000/svg" viewBox="0 0 137.87 283.44"><title>low-cost</title><path d="M34.16 196.65q-9.87-4.23-15.26-11.29a39.73 39.73 0 0 1-7.31-16 90.69 90.69 0 0 1-1.93-19v-5.38h35.41q0 5.39.39 10.39a32.63 32.63 0 0 0 1.92 9.1 19.48 19.48 0 0 0 4.49 7.06 17 17 0 0 0 8.08 4.24v-51.85l-12.83-4.62q-18.72-6.68-26.94-19.12t-8.25-30.14q0-23.86 12.45-36.82T59.93 17.7V0h16.42v17.7q14.37 1.28 23.48 5.77a42.44 42.44 0 0 1 14.5 11.16 38.38 38.38 0 0 1 7.44 14.88 69 69 0 0 1 2 16.68v3.59H88.43a48.67 48.67 0 0 0-2.82-16.29 13.92 13.92 0 0 0-9.24-8.6v48.5l20.27 8.2a96.71 96.71 0 0 1 13 6.68 37.84 37.84 0 0 1 9.87 8.85 39.39 39.39 0 0 1 6.42 12.7 62.07 62.07 0 0 1 2.31 18.21q0 27.72-13.21 40t-38.62 14.11v22.32H59.93v-22.29q-15.9-1.29-25.77-5.52zM47.38 64.39q0 14.37 12.57 21.55v-41q-12.57 3.55-12.57 19.45zm40.41 103.79a24.7 24.7 0 0 0 3.46-13q0-9.75-3.72-15.4a28.85 28.85 0 0 0-11.16-9.48v45.42q7.95-1.77 11.42-7.54zM68.93 283.44L0 230.49l68.94 14.38 68.93-14.38-68.94 52.95z" fill="#d49f0f"/></svg>