<svg xmlns="http://www.w3.org/2000/svg" viewBox="0 0 263.2 263.2"><title>stopwatch</title><path d="M174.48 146.3l28.91-44.16-5-4.45-40.28 34a21.93 21.93 0 1 0 16.35 14.62zM131.6 29.6V0h43.87v29.6a122.49 122.49 0 0 0-43.87 0zm97.07 22.63l15.42-15.43 15.51 15.46-14.49 14.48a133 133 0 0 0-16.44-14.56zM21.93 98.7h87.74v21.9H21.93zM0 142.6h87.73v21.9H0zm32.9 43.86h76.77v21.94H32.9zm230.3-32.9A109.43 109.43 0 0 1 75.6 230.3h36a86.31 86.31 0 0 0 42 11 87.74 87.74 0 1 0 0-175.47 86.31 86.31 0 0 0-42 11h-36a109.43 109.43 0 0 1 187.6 76.7z"/></svg>